<svg width="128" height="22" viewBox="0 0 128 22" fill="none" xmlns="http://www.w3.org/2000/svg">
<path d="M11.2545 16.8982C10.6266 17.7806 9.97603 18.6263 9.29918 19.4425C8.62233 20.255 8.02068 20.9205 7.49048 21.439L3.58355 20.9205C3.62115 19.1189 3.59483 17.3137 3.49706 15.5047C3.3993 13.6958 3.15488 11.9567 2.76381 10.2911C2.47051 10.3316 2.18472 10.3978 1.91022 10.4933C1.63572 10.5889 1.33114 10.7323 1.00024 10.9235L0 9.48593C0.409871 8.93075 0.842304 8.47116 1.29354 8.10716C1.74477 7.74317 2.18848 7.45638 2.6322 7.24681C3.07215 7.03724 3.4933 6.88649 3.89565 6.80193C4.298 6.71737 4.65523 6.67324 4.96734 6.67324C5.53514 6.67324 6.03525 6.82766 6.46393 7.13283C6.89636 7.438 7.18966 7.93803 7.34383 8.62558C7.4228 8.97119 7.50552 9.46755 7.59201 10.1183C7.6785 10.7691 7.7537 11.5081 7.81387 12.3317C7.87403 13.1553 7.90787 14.0377 7.91539 14.9753C7.92668 15.9128 7.91164 16.832 7.87027 17.7328L8.01692 17.674C8.58473 16.8688 9.12997 16.0526 9.64889 15.2179C10.1678 14.3833 10.6153 13.6333 10.9838 12.9641L10.8071 11.6442C10.7694 11.4346 10.7243 11.1772 10.6754 10.8684C10.6266 10.5632 10.5664 10.2507 10.4987 9.93449C10.431 9.61829 10.3558 9.31313 10.2769 9.01531C10.1979 8.7175 10.1189 8.4638 10.04 8.25423C10.0023 8.09981 10.0061 7.97112 10.055 7.86818C10.1039 7.76155 10.1565 7.67331 10.2167 7.5961C10.3333 7.46374 10.5062 7.33873 10.7318 7.22107C10.9575 7.10709 11.2169 7.0115 11.5102 6.93429C11.8035 6.85708 12.1119 6.80192 12.4353 6.76148C12.7586 6.72471 13.067 6.70265 13.3603 6.70265C13.6949 6.72103 13.9582 6.80192 14.1537 6.94532C14.3492 7.08871 14.526 7.31299 14.6839 7.62183C14.8418 7.94906 14.9885 8.48954 15.1239 9.24695C15.2592 10.0044 15.3833 10.8721 15.4924 11.8464C15.6014 12.8244 15.6879 13.8428 15.7556 14.9054C15.8233 15.968 15.8759 16.9681 15.9173 17.9093H16.1241C16.6543 17.2401 17.1318 16.5489 17.5643 15.8393C17.9967 15.1297 18.3577 14.4605 18.651 13.8281C18.9443 13.1957 19.1662 12.6222 19.3128 12.1038C19.4595 11.5853 19.5347 11.1846 19.5347 10.8978C19.5159 10.4934 19.3542 10.1477 19.0496 9.84992C18.745 9.55211 18.2298 9.39402 17.5079 9.37563C17.5079 9.04841 17.5868 8.72117 17.7448 8.38291C17.9027 8.04833 18.1058 7.74685 18.3615 7.47845C18.6172 7.21004 18.9142 6.98943 19.2564 6.81663C19.5986 6.64382 19.9746 6.55927 20.3883 6.55927C21.3283 6.55927 22.039 6.80928 22.5203 7.30564C23.0016 7.80567 23.2385 8.48218 23.2385 9.34621C23.2385 10.2654 22.9791 11.2691 22.4602 12.3611C21.9413 13.4531 21.2945 14.5488 20.5199 15.6518C19.7452 16.7548 18.9067 17.8064 18.008 18.8101C17.1055 19.8138 16.282 20.6926 15.5412 21.439L11.6343 20.9205C11.6155 20.4426 11.5967 19.858 11.5741 19.1667C11.5553 18.4792 11.5065 17.7218 11.4275 16.8982H11.2545V16.8982Z" fill="white"/>
<path d="M28.4052 21.3544C26.6717 21.3544 25.3969 20.8838 24.5772 19.9462C23.7575 19.0087 23.3213 17.7255 23.2611 16.0967C23.2009 14.4679 23.5958 12.9494 24.4343 11.5449C25.2766 10.1367 26.431 8.93444 27.9013 7.93805C29.3302 7.03725 30.635 6.58868 31.8082 6.58868C32.6129 6.58868 33.286 6.66958 33.835 6.83503C34.384 6.99681 34.824 7.2027 35.1586 7.45272C35.4933 7.70273 35.7302 7.97113 35.8768 8.25792C36.0235 8.5447 36.0987 8.80576 36.0987 9.03371C36.0987 9.24329 36.0498 9.47492 35.952 9.72126C35.8543 9.97127 35.6813 10.2066 35.4369 10.4272C35.1925 10.6478 34.8578 10.839 34.4367 11.0007C34.0155 11.1625 33.4928 11.2728 32.8649 11.3317C32.8273 10.8353 32.7483 10.4345 32.6317 10.1404C32.5152 9.84258 32.3835 9.61831 32.2369 9.46756C32.0902 9.31314 31.9361 9.21387 31.7706 9.16607C31.6052 9.11827 31.4623 9.09253 31.3457 9.09253C31.0148 9.09253 30.714 9.1918 30.4395 9.39402C30.165 9.59624 29.913 9.86832 29.6799 10.2139C29.4468 10.5595 29.2362 10.9566 29.0519 11.4052C28.8677 11.8574 28.7097 12.3133 28.5857 12.784C28.4578 13.2546 28.36 13.7179 28.2924 14.1774C28.2247 14.637 28.1908 15.0672 28.1908 15.4716C28.1908 16.468 28.2886 17.2107 28.4841 17.6997C28.6797 18.1887 29.0519 18.4314 29.6009 18.4314C29.8153 18.4314 30.0446 18.4093 30.2928 18.3579C30.5372 18.3101 30.8117 18.2145 31.1163 18.0711C31.4209 17.9277 31.7631 17.7365 32.1466 17.4975C32.5302 17.2585 32.9739 16.9387 33.4853 16.5342L34.8352 17.9718C34.4442 18.4314 33.9967 18.8653 33.4966 19.2771C32.9965 19.6888 32.4587 20.0492 31.8797 20.3543C31.3006 20.6595 30.714 20.9058 30.1161 21.086C29.5257 21.2625 28.9542 21.3544 28.4052 21.3544Z" fill="white"/>
<path d="M44.2774 6.72839C44.785 6.72839 45.3152 6.7762 45.8642 6.87179C46.4132 6.96739 46.9133 7.11445 47.3608 7.31667C47.812 7.51889 48.1768 7.77994 48.4626 8.10716C48.7446 8.43439 48.8875 8.83515 48.8875 9.31313C48.8875 9.54476 48.8235 9.7764 48.6957 10.0191C48.5678 10.258 48.3723 10.4786 48.1091 10.6809C47.8459 10.8831 47.5187 11.0485 47.1277 11.1846C46.7366 11.3169 46.2778 11.3941 45.7514 11.4125C45.6348 10.9162 45.4844 10.5044 45.2964 10.1772C45.1121 9.84993 44.9053 9.59257 44.6835 9.40138C44.4578 9.21019 44.2247 9.07414 43.9803 9.0006C43.7359 8.92339 43.4877 8.88663 43.2358 8.88663C42.8447 8.88663 42.5476 8.98222 42.3446 9.17341C42.1415 9.3646 42.0362 9.59624 42.0362 9.86464C42.0362 10.1698 42.2054 10.4603 42.5476 10.725C42.8898 10.9934 43.3147 11.2765 43.8186 11.5706C44.3262 11.8685 44.8828 12.181 45.4882 12.5045C46.0936 12.8317 46.6501 13.1884 47.154 13.5818C47.6616 13.9752 48.0865 14.4201 48.4249 14.9165C48.7671 15.4165 48.9364 15.979 48.9364 16.6114C48.9364 17.207 48.7859 17.7806 48.4813 18.3358C48.1768 18.891 47.718 19.3837 47.1013 19.8138C46.4846 20.244 45.7213 20.5933 44.8113 20.8617C43.9013 21.1301 42.8484 21.2625 41.6527 21.2625C40.9081 21.2625 40.1975 21.2 39.5206 21.075C38.8437 20.95 38.2534 20.7588 37.742 20.5014C37.2306 20.244 36.8207 19.9131 36.5086 19.5124C36.1965 19.1079 36.0386 18.641 36.0386 18.1042C36.0386 17.549 36.298 17.0416 36.817 16.582C37.3359 16.1224 38.0842 15.854 39.0656 15.7768C39.1032 16.218 39.2386 16.6224 39.4604 16.9975C39.6861 17.3688 39.9643 17.696 40.299 17.9755C40.6336 18.2512 40.9946 18.4718 41.3857 18.6373C41.7768 18.7991 42.1678 18.88 42.5589 18.88C43.0289 18.88 43.3862 18.7807 43.6306 18.5785C43.875 18.3762 43.9991 18.1152 43.9991 17.788C43.9991 17.5196 43.8412 17.2548 43.5291 16.9975C43.217 16.7401 42.8184 16.4644 42.3408 16.1776C41.8595 15.8908 41.3406 15.5856 40.7841 15.2584C40.2275 14.9348 39.7049 14.5819 39.2273 14.2105C38.746 13.8355 38.3512 13.4237 38.039 12.9751C37.7269 12.5266 37.569 12.0229 37.569 11.4677C37.569 10.7801 37.7608 10.1404 38.1406 9.55579C38.5241 8.97119 39.0205 8.46748 39.6372 8.04833C40.2539 7.62919 40.9645 7.30196 41.7655 7.07033C42.5852 6.84605 43.4163 6.72839 44.2774 6.72839Z" fill="white"/>
<path d="M54.212 15.8099C55.0355 15.8099 55.6597 16.0379 56.0921 16.5011C56.5208 16.9607 56.7389 17.5453 56.7389 18.2549C56.7389 19.2109 56.4456 19.983 55.859 20.5676C55.2724 21.1522 54.5165 21.4426 53.5953 21.4426C52.7154 21.4426 52.0724 21.211 51.67 20.7514C51.2677 20.2918 51.0684 19.7182 51.0684 19.027C51.0684 18.6042 51.1511 18.1998 51.3165 17.8064C51.482 17.4129 51.7039 17.071 51.9784 16.7732C52.2529 16.4754 52.58 16.2401 52.9635 16.0709C53.3433 15.8945 53.7607 15.8099 54.212 15.8099ZM53.6254 14.6297L53.3321 3.1105C53.3321 2.8421 53.3847 2.559 53.4937 2.26486C53.6028 1.96704 53.7607 1.69496 53.9788 1.44495C54.1932 1.19493 54.4789 0.989035 54.8324 0.82726C55.1859 0.665484 55.607 0.584595 56.0959 0.584595C56.9194 0.584595 57.5323 0.786808 57.9309 1.18757C58.3332 1.58833 58.5325 2.04792 58.5325 2.56634C58.5325 2.77591 58.5024 2.97814 58.446 3.16933L55.3325 14.6333H53.6254V14.6297Z" fill="white"/>
<path d="M85.4976 3.78702L85.836 5.97099L83.7679 4.97827L81.914 5.97099L82.1923 3.84585L80.6243 2.32001L82.7789 1.91189L83.7641 0L84.8283 1.88616L86.9942 2.32001L85.4976 3.78702Z" fill="white"/>
<path d="M61.7325 21.3581V17.7144H63.5525V10.1367H61.7325V6.48941H71.686V10.1367H70.0127V17.7144H73.7993V14.9606H78.4357V21.3617H61.7325V21.3581Z" fill="white"/>
<path d="M79.5638 11.2544V7.15121H87.9906V16.9681H89.9573V20.9573C89.2729 21.2257 88.5058 21.4279 87.6522 21.5603C86.8024 21.6926 86.0315 21.7625 85.3472 21.7625C84.5049 21.7625 83.8054 21.6816 83.2489 21.5162C82.6924 21.3544 82.2449 21.1154 81.914 20.7992C81.5831 20.483 81.3462 20.097 81.2108 19.6374C81.0717 19.1778 81.0078 18.652 81.0078 18.06V11.2581H79.5638V11.2544Z" fill="white"/>
<path d="M92.0366 21.3581V17.7144H93.8265V10.1367H92.0366V6.48941H108.886V12.3464H104.28V10.1367H100.287V12.0891H103.28V15.5047H100.287V17.7144H102.37V21.3581H92.0366Z" fill="white"/>
<path d="M111.007 21.3581V17.7144H112.767V10.1367H111.007V6.48941H127.797V12.3464H123.187V10.1367H119.224V12.0891H122.217V15.5047H119.224V17.7144H123.364V15.2437H128V21.3581H111.007V21.3581Z" fill="white"/>
</svg>
