<svg width="130" height="44" viewBox="0 0 130 44" fill="none" xmlns="http://www.w3.org/2000/svg">
<path fill-rule="evenodd" clip-rule="evenodd" d="M2.08993 6.46009C1.29719 8.01595 1.08103 9.92156 1.02209 13H1V17V33V41L10.4286 33H113C118.601 33 121.401 33 123.54 31.9101C125.422 30.9513 126.951 29.4215 127.91 27.5399C129 25.4008 129 22.6005 129 17C129 11.3995 129 8.59921 127.91 6.46009C126.951 4.57847 125.422 3.04867 123.54 2.08993C121.401 1 118.601 1 113 1H17C11.3995 1 8.59921 1 6.46009 2.08993C4.57847 3.04867 3.04867 4.57847 2.08993 6.46009Z" fill="white" fill-opacity="0.07"/>
<path d="M1.02209 13V14H2.00313L2.02191 13.0191L1.02209 13ZM2.08993 6.46009L2.98094 6.91409L2.98094 6.91409L2.08993 6.46009ZM1 13V12H0V13H1ZM1 41H0V43.1599L1.64698 41.7625L1 41ZM10.4286 33V32H10.0615L9.78159 32.2375L10.4286 33ZM123.54 31.9101L123.086 31.0191L123.086 31.0191L123.54 31.9101ZM127.91 27.5399L127.019 27.0859L127.019 27.0859L127.91 27.5399ZM127.91 6.46009L127.019 6.91409L127.019 6.91409L127.91 6.46009ZM123.54 2.08993L123.086 2.98094L123.086 2.98094L123.54 2.08993ZM6.46009 2.08993L6.91409 2.98094L6.91409 2.98094L6.46009 2.08993ZM2.02191 13.0191C2.08092 9.93676 2.30339 8.24385 2.98094 6.91409L1.19893 6.0061C0.290982 7.78805 0.0811404 9.90636 0.022278 12.9809L2.02191 13.0191ZM1 14H1.02209V12H1V14ZM2 17V13H0V17H2ZM2 33V17H0V33H2ZM2 41V33H0V41H2ZM9.78159 32.2375L0.353023 40.2375L1.64698 41.7625L11.0755 33.7625L9.78159 32.2375ZM113 32H10.4286V34H113V32ZM123.086 31.0191C122.181 31.4802 121.092 31.7359 119.487 31.8671C117.869 31.9992 115.817 32 113 32V34C115.784 34 117.932 34.0008 119.649 33.8604C121.379 33.7191 122.76 33.4298 123.994 32.8011L123.086 31.0191ZM127.019 27.0859C126.156 28.7794 124.779 30.1562 123.086 31.0191L123.994 32.8011C126.064 31.7465 127.746 30.0637 128.801 27.9939L127.019 27.0859ZM128 17C128 19.8168 127.999 21.8692 127.867 23.4865C127.736 25.0922 127.48 26.1808 127.019 27.0859L128.801 27.9939C129.43 26.7599 129.719 25.3788 129.86 23.6494C130.001 21.9317 130 19.7838 130 17H128ZM127.019 6.91409C127.48 7.81918 127.736 8.90777 127.867 10.5135C127.999 12.1308 128 14.1832 128 17H130C130 14.2162 130.001 12.0683 129.86 10.3506C129.719 8.62123 129.43 7.24013 128.801 6.0061L127.019 6.91409ZM123.086 2.98094C124.779 3.8438 126.156 5.22063 127.019 6.91409L128.801 6.0061C127.746 3.93632 126.064 2.25354 123.994 1.19893L123.086 2.98094ZM113 2C115.817 2 117.869 2.00078 119.487 2.13292C121.092 2.26411 122.181 2.51977 123.086 2.98094L123.994 1.19893C122.76 0.57016 121.379 0.280857 119.649 0.139563C117.932 -0.000777707 115.784 0 113 0V2ZM17 2H113V0H17V2ZM6.91409 2.98094C7.81918 2.51977 8.90777 2.26411 10.5135 2.13292C12.1308 2.00078 14.1832 2 17 2V0C14.2162 0 12.0683 -0.000777706 10.3506 0.139563C8.62123 0.280857 7.24013 0.57016 6.0061 1.19893L6.91409 2.98094ZM2.98094 6.91409C3.8438 5.22063 5.22063 3.8438 6.91409 2.98094L6.0061 1.19893C3.93632 2.25354 2.25354 3.93632 1.19893 6.0061L2.98094 6.91409Z" fill="white"/>
<path d="M25.5976 16.24C25.5976 15.5467 25.7202 14.864 25.9656 14.192C26.2216 13.52 26.5896 12.912 27.0696 12.368C27.5496 11.824 28.1362 11.392 28.8296 11.072C29.5229 10.7413 30.3122 10.576 31.1976 10.576C32.2322 10.576 33.1336 10.8053 33.9016 11.264C34.6696 11.7227 35.2402 12.32 35.6136 13.056L33.9176 14.224C33.7256 13.7973 33.4749 13.4613 33.1656 13.216C32.8562 12.9707 32.5202 12.7947 32.1576 12.688C31.8056 12.5813 31.4642 12.528 31.1336 12.528C30.5789 12.528 30.0936 12.64 29.6776 12.864C29.2722 13.088 28.9309 13.3813 28.6536 13.744C28.3762 14.1067 28.1682 14.512 28.0296 14.96C27.9016 15.408 27.8376 15.856 27.8376 16.304C27.8376 16.976 27.9762 17.6053 28.2536 18.192C28.5309 18.768 28.9202 19.2373 29.4216 19.6C29.9229 19.9627 30.5042 20.144 31.1656 20.144C31.5069 20.144 31.8589 20.0853 32.2216 19.968C32.5949 19.8507 32.9362 19.664 33.2456 19.408C33.5549 19.152 33.7949 18.8213 33.9656 18.416L35.7736 19.456C35.5389 20.0213 35.1709 20.5013 34.6696 20.896C34.1682 21.28 33.6029 21.5787 32.9736 21.792C32.3442 21.9947 31.7202 22.096 31.1016 22.096C30.2909 22.096 29.5496 21.9307 28.8776 21.6C28.2162 21.2587 27.6402 20.8107 27.1496 20.256C26.6589 19.6907 26.2749 19.0613 25.9976 18.368C25.7309 17.664 25.5976 16.9547 25.5976 16.24ZM40.8871 22.16C39.9697 22.16 39.1804 21.9627 38.5191 21.568C37.8684 21.1627 37.3671 20.6293 37.0151 19.968C36.6631 19.3067 36.4871 18.592 36.4871 17.824C36.4871 17.0453 36.6631 16.3253 37.0151 15.664C37.3777 15.0027 37.8844 14.4747 38.5351 14.08C39.1964 13.6747 39.9804 13.472 40.8871 13.472C41.7937 13.472 42.5724 13.6747 43.2231 14.08C43.8844 14.4747 44.3911 15.0027 44.7431 15.664C45.0951 16.3253 45.2711 17.0453 45.2711 17.824C45.2711 18.592 45.0951 19.3067 44.7431 19.968C44.3911 20.6293 43.8844 21.1627 43.2231 21.568C42.5724 21.9627 41.7937 22.16 40.8871 22.16ZM38.6951 17.824C38.6951 18.3147 38.7911 18.752 38.9831 19.136C39.1751 19.5093 39.4364 19.8027 39.7671 20.016C40.0977 20.2293 40.4711 20.336 40.8871 20.336C41.2924 20.336 41.6604 20.2293 41.9911 20.016C42.3217 19.792 42.5831 19.4933 42.7751 19.12C42.9777 18.736 43.0791 18.2987 43.0791 17.808C43.0791 17.328 42.9777 16.9013 42.7751 16.528C42.5831 16.144 42.3217 15.8453 41.9911 15.632C41.6604 15.408 41.2924 15.296 40.8871 15.296C40.4711 15.296 40.0977 15.408 39.7671 15.632C39.4364 15.8453 39.1751 16.144 38.9831 16.528C38.7911 16.9013 38.6951 17.3333 38.6951 17.824ZM46.7182 22V13.616H51.3902C51.9662 13.616 52.4302 13.712 52.7822 13.904C53.1449 14.096 53.4115 14.3467 53.5822 14.656C53.7529 14.9653 53.8382 15.296 53.8382 15.648C53.8382 16.1173 53.7315 16.528 53.5182 16.88C53.3049 17.232 52.9849 17.504 52.5582 17.696C53.0489 17.824 53.4489 18.0587 53.7582 18.4C54.0675 18.7413 54.2222 19.184 54.2222 19.728C54.2222 20.5173 53.9449 21.0933 53.3902 21.456C52.8462 21.8187 52.1049 22 51.1662 22H46.7182ZM48.7502 17.104H50.8462C51.1342 17.104 51.3689 17.0027 51.5502 16.8C51.7315 16.5867 51.8222 16.336 51.8222 16.048C51.8222 15.7707 51.7315 15.5413 51.5502 15.36C51.3795 15.168 51.1502 15.072 50.8622 15.072H48.7502V17.104ZM48.7502 20.544H51.1022C51.4009 20.544 51.6462 20.4427 51.8382 20.24C52.0409 20.0373 52.1422 19.7867 52.1422 19.488C52.1422 19.1893 52.0462 18.944 51.8542 18.752C51.6622 18.5493 51.4169 18.448 51.1182 18.448H48.7502V20.544ZM59.6687 22.16C58.762 22.16 57.978 21.9627 57.3167 21.568C56.666 21.1733 56.1594 20.6507 55.7967 20C55.434 19.3387 55.2527 18.624 55.2527 17.856C55.2527 17.0667 55.4287 16.3413 55.7807 15.68C56.1434 15.008 56.6554 14.4747 57.3167 14.08C57.978 13.6747 58.7674 13.472 59.6847 13.472C60.602 13.472 61.386 13.6747 62.0367 14.08C62.6874 14.4747 63.1834 15.0027 63.5247 15.664C63.8767 16.3147 64.0527 17.0187 64.0527 17.776C64.0527 18.0533 64.0367 18.2933 64.0047 18.496H57.5247C57.578 19.1467 57.818 19.6587 58.2447 20.032C58.682 20.4053 59.1834 20.592 59.7487 20.592C60.1754 20.592 60.5754 20.4907 60.9487 20.288C61.3327 20.0747 61.594 19.7973 61.7327 19.456L63.5727 19.968C63.2634 20.608 62.7674 21.136 62.0847 21.552C61.402 21.9573 60.5967 22.16 59.6687 22.16ZM57.4767 17.136H61.8607C61.7967 16.5067 61.5567 16 61.1407 15.616C60.7354 15.2213 60.2394 15.024 59.6527 15.024C59.0767 15.024 58.5807 15.2213 58.1647 15.616C57.7594 16 57.53 16.5067 57.4767 17.136ZM67.2948 22V15.488H64.6388V13.616H72.1108V15.488H69.4388V22H67.2948ZM76.4677 24.032V20.128H76.6917C76.969 20.128 77.225 20.0213 77.4597 19.808C77.6944 19.5947 77.8864 19.2107 78.0357 18.656C78.1957 18.1013 78.2917 17.3013 78.3237 16.256L78.4197 13.616H84.7077V20.128H85.8757V24.032H84.0037V22H78.3557V24.032H76.4677ZM79.3957 20.128H82.5637V15.424H80.2917L80.2437 16.464C80.201 17.5307 80.1104 18.3467 79.9717 18.912C79.833 19.4773 79.641 19.8827 79.3957 20.128ZM87.2651 22V13.616H89.4091V16.816H92.8011V13.616H94.9451V22H92.8011V18.608H89.4091V22H87.2651ZM96.4577 22L98.5857 18.736C98.0737 18.5973 97.6737 18.3253 97.3857 17.92C97.0977 17.5147 96.9537 16.9813 96.9537 16.32C96.9537 15.4987 97.231 14.8373 97.7857 14.336C98.3404 13.8347 99.0604 13.584 99.9457 13.584H103.93V22H101.786V19.104H100.65L98.8097 22H96.4577ZM100.202 17.568H101.786V15.232H100.282C99.8977 15.232 99.5937 15.3387 99.3697 15.552C99.1457 15.7547 99.0337 16.032 99.0337 16.384C99.0337 16.7253 99.1297 17.008 99.3217 17.232C99.5244 17.456 99.8177 17.568 100.202 17.568Z" fill="white"/>
</svg>
